<svg xmlns="http://www.w3.org/2000/svg">
  <symbol width="16" height="20" fill="none" id="icon-replay">
    <path d="M8 4V0L3 5l5 5V6c3.3 0 6 2.7 6 6s-2.7 6-6 6-6-2.7-6-6H0c0 4.4 3.6 8 8 8s8-3.6 8-8-3.6-8-8-8z" fill="currentcolor"/>
  </symbol>
  <symbol width="32" height="20" fill="none" id="icon-subtitles">
    <path d="M29 0H3C1.3 0 0 1.3 0 3v14c0 1.7 1.3 3 3 3h26c1.7 0 3-1.3 3-3V3c0-1.7-1.3-3-3-3zM14.4 15.9c-.5.1-1.1.1-1.7.1-.7 0-1.4-.1-2-.3-.6-.2-1.2-.6-1.6-1-.4-.4-.8-1.1-1.1-1.9-.3-.8-.4-1.7-.4-2.8 0-1.1.2-2.1.5-2.9.3-.8.7-1.4 1.2-1.9s1.1-.8 1.7-1c.5-.1 1.2-.2 1.8-.2.7 0 1.2 0 1.7.1s.8.2 1.1.3l-.4 1.9-.9-.3H13c-.9 0-1.6.3-2.2 1-.6.7-.8 1.7-.8 3 0 .6.1 1.1.2 1.6s.3.9.6 1.3c.3.3.6.6 1 .8.4.2.9.3 1.4.3.5 0 .9 0 1.3-.1.3-.1.6-.2.9-.4l.5 1.8c-.5.3-1 .4-1.5.6zm8.7 0c-.5.1-1.1.1-1.7.1-.7 0-1.4-.1-2-.3-.6-.2-1.2-.6-1.6-1-.5-.5-.9-1.1-1.1-1.9-.3-.8-.4-1.7-.4-2.8 0-1.1.2-2.1.5-2.9.3-.8.7-1.4 1.2-1.9s1.1-.8 1.7-1c.5-.1 1.2-.2 1.8-.2.7 0 1.2 0 1.7.1s.8.2 1.1.3l-.4 1.9L23 6h-1.3c-.9 0-1.6.3-2.2 1-.6.7-.8 1.7-.8 3 0 .6.1 1.1.2 1.6s.3.9.6 1.3c.3.3.6.6 1 .8.4.2.9.3 1.4.3.5 0 .9 0 1.3-.1.3-.1.6-.2.9-.4l.5 1.8c-.5.3-1 .4-1.5.6z" fill="currentcolor"/>
  </symbol>
  <symbol width="20" height="20" fill="none" id="icon-fullvideo">
    <path d="M0 0v6h3V3h3V0H0zM3 14H0v6h6v-3H3v-3zM17 0h-3v3h3v3h3V0h-3zM17 17h-3v3h6v-6h-3v3z" fill="currentcolor"/>
  </symbol>
</svg>
